<svg width="865" height="1005" viewBox="0 0 865 1005" fill="none" xmlns="http://www.w3.org/2000/svg">
<g opacity="0.06">
<path fill-rule="evenodd" clip-rule="evenodd" d="M142.386 633.921C155.32 620.876 158.928 601.233 151.473 584.444C108.761 489.27 126.197 373.511 203.998 295.051C304.961 193.231 469.595 192.536 571.415 293.5C673.233 394.463 673.93 559.098 572.965 660.917C495.165 739.377 379.558 757.79 284.014 715.91C267.174 708.601 247.575 712.372 234.649 725.408C211.903 748.305 176.84 783.665 151.499 809.221C143.174 817.616 131.856 822.36 120.034 822.41C108.213 822.46 96.8546 817.811 88.4596 809.486C79.1083 800.213 68.8742 790.065 59.5229 780.793C51.1275 772.469 46.3844 761.151 46.3338 749.328C46.2838 737.507 50.9323 726.148 59.2569 717.754C84.5982 692.197 119.662 656.837 142.386 633.921ZM479.949 385.741C530.858 436.224 531.205 518.54 480.723 569.451C430.242 620.36 347.925 620.708 297.015 570.225C246.105 519.744 245.757 437.428 296.24 386.517C346.721 335.608 429.038 335.26 479.949 385.741Z" fill="#00B4D8"/>
<path fill-rule="evenodd" clip-rule="evenodd" d="M663.667 371.456C662.436 367.554 662.848 363.317 664.808 359.725C666.768 356.133 670.106 353.492 674.052 352.415C697.499 346.005 771.613 325.772 794.581 319.502C798.433 318.45 802.545 318.972 806.013 320.951C809.48 322.931 812.018 326.207 813.07 330.06C817.01 344.494 826.123 377.872 830.063 392.305C832.253 400.326 827.526 408.603 819.505 410.793L693.608 445.164C689.222 446.361 684.53 445.512 680.842 442.853C677.161 440.201 674.877 436.03 674.613 431.473C674.612 431.468 674.613 431.463 674.612 431.459C673.374 411.179 669.723 391.022 663.667 371.456ZM641.669 288.94C638.643 291.994 634.452 293.609 630.158 293.376C625.874 293.143 621.894 291.093 619.217 287.743C619.215 287.741 619.214 287.74 619.213 287.739C613.159 280.186 606.605 272.896 599.558 265.915C591.962 258.39 584.01 251.441 575.762 245.069C575.76 245.069 575.758 245.067 575.756 245.066C572.339 242.435 570.214 238.466 569.919 234.164C569.624 229.851 571.198 225.619 574.24 222.547C593.017 203.587 652.409 143.631 670.071 125.803C672.881 122.965 676.702 121.361 680.695 121.343C684.688 121.323 688.525 122.892 691.361 125.701C701.99 136.231 726.572 160.581 737.2 171.11C743.107 176.962 743.153 186.493 737.301 192.401L641.669 288.94ZM510.38 191.655C509.344 195.595 506.755 198.947 503.204 200.945C499.66 202.939 495.462 203.413 491.53 202.256C491.527 202.255 491.523 202.254 491.518 202.253C471.833 196.524 451.593 193.216 431.321 192.324C431.313 192.323 431.305 192.323 431.297 192.323C426.738 192.147 422.504 189.913 419.787 186.248C417.069 182.581 416.162 177.878 417.323 173.466C417.323 173.466 417.323 173.465 417.322 173.465C424.196 147.284 444.695 69.3077 450.912 45.6633C453.026 37.6214 461.259 32.8163 469.299 34.9305C483.77 38.7344 517.233 47.5324 531.703 51.3363C535.565 52.3508 538.864 54.8585 540.877 58.3075C542.89 61.7553 543.45 65.8629 542.434 69.7242L510.38 191.655Z" fill="#00B4D8"/>
<path fill-rule="evenodd" clip-rule="evenodd" d="M417.697 406.131C457.586 420.812 478.053 465.116 463.371 505.006C448.69 544.897 404.386 565.363 364.496 550.682C324.606 536.001 304.139 491.696 318.82 451.805C333.501 411.915 377.807 391.45 417.697 406.131ZM398.518 521.831C399.937 524.903 402.668 527.168 405.949 527.993C409.229 528.82 412.707 528.116 415.412 526.083C425.683 518.429 433.623 507.914 438.114 495.71C442.605 483.508 443.377 470.353 440.494 457.873C439.756 454.578 437.567 451.795 434.541 450.3C431.513 448.804 427.973 448.758 424.908 450.174C424.897 450.154 424.897 450.154 424.895 450.155C421.021 451.946 419.012 456.278 420.148 460.393C422.772 469.646 422.416 479.555 419.052 488.695C415.688 497.836 409.535 505.611 401.556 510.98C398.034 513.367 396.76 517.953 398.545 521.815C398.517 521.83 398.517 521.83 398.518 521.831Z" fill="#00B4D8"/>
</g>
</svg>
