<svg width="18" height="18" viewBox="0 0 18 18" fill="none" xmlns="http://www.w3.org/2000/svg">
<path d="M12.3693 4.709H12.1331V4.47284C12.1331 4.28493 12.0585 4.10472 11.9256 3.97186C11.7928 3.83899 11.6126 3.76434 11.4246 3.76434C11.2367 3.76434 11.0565 3.83899 10.9237 3.97186C10.7908 4.10472 10.7162 4.28493 10.7162 4.47284V4.709H7.88218V4.47284C7.88218 4.28493 7.80754 4.10472 7.67467 3.97186C7.5418 3.83899 7.36159 3.76434 7.17369 3.76434C6.98579 3.76434 6.80558 3.83899 6.67271 3.97186C6.53984 4.10472 6.4652 4.28493 6.4652 4.47284V4.709H6.22903C5.54005 4.709 4.87929 4.9827 4.39211 5.46988C3.90492 5.95706 3.63123 6.61783 3.63123 7.30681L3.63123 12.5024C3.63123 13.1914 3.90492 13.8522 4.39211 14.3393C4.87929 14.8265 5.54005 15.1002 6.22903 15.1002H12.3693C13.0583 15.1002 13.719 14.8265 14.2062 14.3393C14.6934 13.8522 14.9671 13.1914 14.9671 12.5024V7.30681C14.9671 6.61783 14.6934 5.95706 14.2062 5.46988C13.719 4.9827 13.0583 4.709 12.3693 4.709ZM12.3693 13.6832H6.22903C5.91586 13.6832 5.61551 13.5588 5.39407 13.3374C5.17262 13.1159 5.04821 12.8156 5.04821 12.5024V8.48763H13.5501V12.5024C13.5501 12.8156 13.4257 13.1159 13.2043 13.3374C12.9828 13.5588 12.6825 13.6832 12.3693 13.6832Z" fill="#FAFAFE"/>
</svg>
