<svg width="24" height="24" viewBox="0 0 24 24" fill="none" xmlns="http://www.w3.org/2000/svg">
<path d="M18.7998 10.9698V16.76C18.7987 17.6614 18.4402 18.5255 17.8028 19.1629C17.1654 19.8003 16.3012 20.1589 15.3998 20.16H8.59983C7.69842 20.1589 6.83425 19.8003 6.19686 19.1629C5.55947 18.5255 5.20091 17.6614 5.19983 16.76V7.23997C5.20091 6.33856 5.55947 5.47439 6.19686 4.837C6.83425 4.19961 7.69842 3.84105 8.59983 3.83997L11.67 3.83997C11.7809 3.83997 11.8903 3.84881 11.9998 3.85629V8.59997C11.9998 9.14101 12.2148 9.65989 12.5973 10.0425C12.9799 10.425 13.4988 10.64 14.0398 10.64H18.7835C18.791 10.7494 18.7998 10.8589 18.7998 10.9698ZM13.3598 16.76C13.3598 16.5796 13.2882 16.4067 13.1607 16.2791C13.0331 16.1516 12.8602 16.08 12.6798 16.08H9.27983C9.09948 16.08 8.92652 16.1516 8.799 16.2791C8.67147 16.4067 8.59983 16.5796 8.59983 16.76C8.59983 16.9403 8.67147 17.1133 8.799 17.2408C8.92652 17.3683 9.09948 17.44 9.27983 17.44H12.6798C12.8602 17.44 13.0331 17.3683 13.1607 17.2408C13.2882 17.1133 13.3598 16.9403 13.3598 16.76ZM15.3998 14.04C15.3998 13.8596 15.3282 13.6867 15.2007 13.5591C15.0731 13.4316 14.9002 13.36 14.7198 13.36H9.27983C9.09948 13.36 8.92652 13.4316 8.799 13.5591C8.67147 13.6867 8.59983 13.8596 8.59983 14.04C8.59983 14.2203 8.67147 14.3933 8.799 14.5208C8.92652 14.6483 9.09948 14.72 9.27983 14.72H14.7198C14.9002 14.72 15.0731 14.6483 15.2007 14.5208C15.3282 14.3933 15.3998 14.2203 15.3998 14.04Z" fill="#5F738C"/>
<path d="M13.3598 4.15283V8.60003C13.3598 8.78038 13.4314 8.95334 13.559 9.08086C13.6865 9.20839 13.8595 9.28003 14.0398 9.28003H18.487C18.2496 8.65096 17.8808 8.07975 17.4051 7.60451L15.036 5.23403C14.5602 4.75892 13.9888 4.39038 13.3598 4.15283Z" fill="#CCD0EE"/>
</svg>
