<svg width="24" height="24" viewBox="0 0 24 24" fill="none" xmlns="http://www.w3.org/2000/svg">
<path d="M18.8 10.9698V16.76C18.7989 17.6614 18.4403 18.5256 17.8029 19.163C17.1655 19.8004 16.3014 20.1589 15.4 20.16H8.59995C7.69855 20.1589 6.83437 19.8004 6.19698 19.163C5.55959 18.5256 5.20103 17.6614 5.19995 16.76V7.24C5.20103 6.33859 5.55959 5.47442 6.19698 4.83703C6.83437 4.19964 7.69855 3.84108 8.59995 3.84L11.6702 3.84C11.781 3.84 11.8905 3.84884 12 3.85632V8.6C12 9.14104 12.2149 9.65992 12.5975 10.0425C12.98 10.4251 13.4989 10.64 14.04 10.64H18.7836C18.7911 10.7495 18.8 10.859 18.8 10.9698ZM13.36 16.76C13.36 16.5796 13.2883 16.4067 13.1608 16.2792C13.0333 16.1516 12.8603 16.08 12.68 16.08H9.27995C9.0996 16.08 8.92664 16.1516 8.79912 16.2792C8.67159 16.4067 8.59995 16.5796 8.59995 16.76C8.59995 16.9403 8.67159 17.1133 8.79912 17.2408C8.92664 17.3684 9.0996 17.44 9.27995 17.44H12.68C12.8603 17.44 13.0333 17.3684 13.1608 17.2408C13.2883 17.1133 13.36 16.9403 13.36 16.76ZM15.4 14.04C15.4 13.8596 15.3283 13.6867 15.2008 13.5592C15.0733 13.4316 14.9003 13.36 14.72 13.36H9.27995C9.0996 13.36 8.92664 13.4316 8.79912 13.5592C8.67159 13.6867 8.59995 13.8596 8.59995 14.04C8.59995 14.2203 8.67159 14.3933 8.79912 14.5208C8.92664 14.6484 9.0996 14.72 9.27995 14.72H14.72C14.9003 14.72 15.0733 14.6484 15.2008 14.5208C15.3283 14.3933 15.4 14.2203 15.4 14.04Z" fill="#0077B6"/>
<path d="M13.3599 4.15289V8.60009C13.3599 8.78044 13.4315 8.9534 13.559 9.08092C13.6866 9.20845 13.8595 9.28009 14.0399 9.28009H18.4871C18.2497 8.65102 17.8808 8.07981 17.4052 7.60457L15.0361 5.23409C14.5603 4.75898 13.9889 4.39044 13.3599 4.15289Z" fill="#0077B6"/>
</svg>
