<svg width="30" height="30" viewBox="0 0 30 30" fill="none" xmlns="http://www.w3.org/2000/svg">
<rect width="29.7567" height="29.7567" rx="9.9189" fill="#00B4D8"/>
<path d="M21.7502 17.9998V13.5748L15.7127 16.8561C15.4877 16.9811 15.2502 17.0436 15.0002 17.0436C14.7502 17.0436 14.5127 16.9811 14.2877 16.8561L7.9502 13.4061C7.8127 13.3311 7.71582 13.2373 7.65957 13.1248C7.60332 13.0123 7.5752 12.8873 7.5752 12.7498C7.5752 12.6123 7.60332 12.4873 7.65957 12.3748C7.71582 12.2623 7.8127 12.1686 7.9502 12.0936L14.2877 8.64355C14.4002 8.58105 14.5158 8.53418 14.6346 8.50293C14.7533 8.47168 14.8752 8.45605 15.0002 8.45605C15.1252 8.45605 15.2471 8.47168 15.3658 8.50293C15.4846 8.53418 15.6002 8.58105 15.7127 8.64355L22.8564 12.5436C22.9814 12.6061 23.0783 12.6967 23.1471 12.8154C23.2158 12.9342 23.2502 13.0623 23.2502 13.1998V17.9998C23.2502 18.2123 23.1783 18.3904 23.0346 18.5342C22.8908 18.6779 22.7127 18.7498 22.5002 18.7498C22.2877 18.7498 22.1096 18.6779 21.9658 18.5342C21.8221 18.3904 21.7502 18.2123 21.7502 17.9998ZM14.2877 21.3561L10.5377 19.3311C10.2877 19.1936 10.0939 19.0061 9.95645 18.7686C9.81895 18.5311 9.7502 18.2748 9.7502 17.9998V15.1498L14.2877 17.6061C14.5127 17.7311 14.7502 17.7936 15.0002 17.7936C15.2502 17.7936 15.4877 17.7311 15.7127 17.6061L20.2502 15.1498V17.9998C20.2502 18.2748 20.1814 18.5311 20.0439 18.7686C19.9064 19.0061 19.7127 19.1936 19.4627 19.3311L15.7127 21.3561C15.6002 21.4186 15.4846 21.4654 15.3658 21.4967C15.2471 21.5279 15.1252 21.5436 15.0002 21.5436C14.8752 21.5436 14.7533 21.5279 14.6346 21.4967C14.5158 21.4654 14.4002 21.4186 14.2877 21.3561Z" fill="white"/>
</svg>
