<svg width="31" height="31" viewBox="0 0 31 31" fill="none" xmlns="http://www.w3.org/2000/svg">
<rect x="0.571411" y="0.857117" width="30" height="30" rx="10" fill="#F5CE00"/>
<rect width="17.1429" height="17.1429" transform="translate(7 7.28571)" fill="#F5CE00"/>
<mask id="mask0_69_593" style="mask-type:alpha" maskUnits="userSpaceOnUse" x="7" y="7" width="18" height="18">
<rect x="7" y="7.28571" width="17.1429" height="17.1429" fill="#16205B"/>
</mask>
<g mask="url(#mask0_69_593)">
<path d="M15.5715 15.8572C14.7857 15.8572 14.1131 15.5774 13.5536 15.0179C12.9941 14.4584 12.7143 13.7857 12.7143 13C12.7143 12.2143 12.9941 11.5417 13.5536 10.9822C14.1131 10.4226 14.7857 10.1429 15.5715 10.1429C16.3572 10.1429 17.0298 10.4226 17.5893 10.9822C18.1488 11.5417 18.4286 12.2143 18.4286 13C18.4286 13.7857 18.1488 14.4584 17.5893 15.0179C17.0298 15.5774 16.3572 15.8572 15.5715 15.8572ZM10.5715 21.5715C10.3691 21.5715 10.1996 21.5029 10.0629 21.3657C9.92575 21.2291 9.85718 21.0596 9.85718 20.8572V19.5715C9.85718 19.1667 9.96146 18.7945 10.17 18.455C10.3781 18.116 10.6548 17.8572 11 17.6786C11.7381 17.3096 12.4881 17.0326 13.25 16.8479C14.0119 16.6636 14.7857 16.5715 15.5715 16.5715C16.3572 16.5715 17.131 16.6636 17.8929 16.8479C18.6548 17.0326 19.4048 17.3096 20.1429 17.6786C20.4881 17.8572 20.7648 18.116 20.9729 18.455C21.1815 18.7945 21.2857 19.1667 21.2857 19.5715V20.8572C21.2857 21.0596 21.2172 21.2291 21.08 21.3657C20.9434 21.5029 20.7738 21.5715 20.5715 21.5715H10.5715Z" fill="#FAFAFE"/>
</g>
</svg>
