<svg width="405" height="197" viewBox="0 0 405 197" fill="none" xmlns="http://www.w3.org/2000/svg">
<path fill-rule="evenodd" clip-rule="evenodd" d="M201.641 138.983C203.199 135.574 202.505 131.559 199.895 128.87C185.011 113.659 180.193 90.2678 189.56 69.7645C201.715 43.1568 233.185 31.4233 259.793 43.5787C286.4 55.7338 298.134 87.2042 285.979 113.812C276.612 134.315 255.776 145.986 234.533 144.7C230.794 144.488 227.308 146.591 225.752 149.997C223.01 155.984 218.789 165.224 215.738 171.902C214.736 174.096 212.903 175.802 210.643 176.644C208.384 177.487 205.882 177.397 203.688 176.395C201.244 175.279 198.57 174.057 196.126 172.94C193.932 171.938 192.227 170.106 191.384 167.846C190.541 165.586 190.631 163.084 191.633 160.89C194.684 154.212 198.905 144.971 201.641 138.983ZM248.781 67.6832C262.085 73.7609 267.951 89.4961 261.874 102.8C255.796 116.104 240.061 121.971 226.757 115.893C213.453 109.815 207.587 94.0802 213.664 80.7763C219.742 67.4725 235.477 61.6058 248.781 67.6832Z" fill="#00B4D8"/>
<path d="M28.985 29.1905C28.985 25.7053 26.1596 22.8799 22.6744 22.8799C17.8254 22.8799 11.1593 22.8799 6.3106 22.8799C2.82541 22.8799 0 25.7053 0 29.1905C0 51.1507 0 124.081 0 146.041C0 147.715 0.664787 149.32 1.84832 150.503C3.03186 151.687 4.63703 152.352 6.3106 152.352C20.4092 152.352 54.33 152.352 68.4286 152.352C70.1024 152.352 71.7076 151.687 72.8909 150.503C74.0744 149.32 74.7392 147.715 74.7392 146.041C74.7392 141.237 74.7392 134.654 74.7392 129.85C74.7392 128.177 74.0744 126.571 72.8909 125.388C71.7076 124.204 70.1024 123.54 68.4286 123.54C59.698 123.54 44.0262 123.54 35.2956 123.54C33.6218 123.54 32.0168 122.875 30.8333 121.691C29.6498 120.508 28.985 118.903 28.985 117.229C28.985 99.1447 28.985 47.2751 28.985 29.1905Z" fill="#0077B6"/>
<path d="M142.498 59.0605V110.797C142.498 129.234 113.642 129.406 113.642 110.797V59.0605C113.642 57.3867 112.978 55.7815 111.794 54.5982C110.611 53.4147 109.006 52.7499 107.332 52.7499H91.3134C89.6396 52.7499 88.0347 53.4147 86.8511 54.5982C85.6676 55.7815 85.0028 57.3867 85.0028 59.0605V110.797C85.0028 167.891 171.137 164.611 171.137 110.797V59.0605C171.137 57.3867 170.473 55.7815 169.289 54.5982C168.106 53.4147 166.5 52.7499 164.827 52.7499C160.068 52.7499 153.568 52.7499 148.809 52.7499C147.135 52.7499 145.53 53.4147 144.346 54.5982C143.163 55.7815 142.498 57.3867 142.498 59.0605Z" fill="#0077B6"/>
<path d="M375.858 55.4418C375.858 56.5352 375.306 57.5547 374.391 58.1528C373.476 58.751 372.321 58.8471 371.319 58.4085C365.115 55.6727 358.16 54.1312 350.984 54.1312C323.18 54.1312 301.097 77.4224 301.097 103.888C301.097 131.65 324.561 153.733 350.984 153.733C359.008 153.733 366.756 151.806 373.49 148.197C373.983 147.924 374.583 147.933 375.068 148.219C375.553 148.505 375.851 149.026 375.851 149.59C375.858 149.59 375.858 149.59 375.858 149.59C375.858 150.323 376.149 151.025 376.667 151.543C377.185 152.061 377.887 152.352 378.619 152.352C383.133 152.352 392.206 152.352 398.359 152.352C401.845 152.352 404.67 149.527 404.67 146.041C404.67 128.159 404.67 77.2883 404.67 59.4058C404.67 55.9206 401.845 53.0952 398.359 53.0952C392.01 53.0952 382.555 53.0952 378.203 53.0952C376.908 53.0952 375.858 54.1454 375.858 55.4408C375.858 55.441 375.858 55.4415 375.858 55.4418ZM350.984 125.266C339.065 125.266 329.564 115.38 329.564 103.932C329.564 91.9641 339.756 82.5982 350.984 82.5982C362.903 82.5982 372.231 92.6578 372.231 103.932C372.231 115.9 362.212 125.266 350.984 125.266Z" fill="#0077B6"/>
<path fill-rule="evenodd" clip-rule="evenodd" d="M282.947 52.003C282.437 51.3427 282.217 50.5024 282.339 49.6766C282.461 48.8508 282.914 48.1101 283.594 47.6258C287.631 44.7465 300.395 35.6507 304.35 32.8318C305.014 32.359 305.838 32.1692 306.641 32.3038C307.444 32.4386 308.161 32.8869 308.634 33.5505C310.405 36.0361 314.502 41.7843 316.273 44.2699C317.258 45.6512 316.936 47.5689 315.555 48.5535L293.873 64.0048C293.118 64.5431 292.16 64.7111 291.266 64.4619C290.375 64.2135 289.644 63.576 289.272 62.7219C289.272 62.7212 289.271 62.7202 289.271 62.7195C287.605 58.924 285.486 55.3222 282.947 52.003ZM272.922 37.7551C272.558 38.5532 271.869 39.1576 271.03 39.4155C270.194 39.6728 269.287 39.5608 268.539 39.1082C268.538 39.1079 268.538 39.1077 268.538 39.1077C266.847 38.0882 265.078 37.1543 263.237 36.3142C261.253 35.4088 259.241 34.6386 257.213 34.0001C257.212 34.0001 257.212 33.9998 257.211 33.9998C256.371 33.737 255.685 33.1268 255.325 32.324C254.965 31.5189 254.968 30.5977 255.334 29.7954C257.593 24.8423 264.739 9.17879 266.864 4.52104C267.202 3.77986 267.821 3.20345 268.584 2.91861C269.347 2.63353 270.192 2.66348 270.933 3.00149C273.71 4.26841 280.132 7.19816 282.909 8.46508C284.452 9.1693 285.132 10.9909 284.428 12.5342L272.922 37.7551ZM240.931 28.3807C241.01 29.208 240.751 30.0323 240.212 30.6649C239.674 31.2965 238.904 31.6829 238.069 31.7386C238.069 31.7386 238.068 31.7386 238.067 31.7388C233.895 32.0289 229.786 32.8218 225.842 34.0795C225.841 34.08 225.839 34.0805 225.838 34.081C224.952 34.3685 223.985 34.2392 223.206 33.729C222.427 33.2185 221.922 32.3819 221.834 31.4555C221.834 31.4555 221.834 31.4553 221.834 31.4553C221.305 25.9585 219.735 9.58545 219.259 4.62065C219.097 2.93209 220.335 1.43202 222.023 1.27025C225.062 0.978923 232.088 0.3054 235.126 0.0140717C235.937 -0.0638154 236.746 0.183826 237.374 0.702324C238.002 1.22057 238.399 1.96749 238.477 2.77832L240.931 28.3807Z" fill="#00B4D8"/>
<path fill-rule="evenodd" clip-rule="evenodd" d="M238.299 75.9733C246.971 75.9733 254.011 83.0133 254.011 91.6847C254.011 100.356 246.971 107.396 238.299 107.396C229.628 107.396 222.588 100.356 222.588 91.6847C222.588 83.0133 229.628 75.9733 238.299 75.9733ZM242.78 99.4757C243.268 99.9638 243.951 100.205 244.637 100.132C245.323 100.059 245.94 99.6792 246.314 99.0993C247.741 96.9102 248.52 94.3377 248.52 91.6847C248.52 89.0321 247.741 86.4593 246.31 84.273C245.936 83.6943 245.321 83.3156 244.636 83.2427C243.951 83.1696 243.27 83.4102 242.783 83.8973C242.78 83.8943 242.78 83.8943 242.78 83.8945C242.164 84.5104 242.085 85.4815 242.592 86.1892C243.746 87.7757 244.377 89.6979 244.377 91.6847C244.377 93.6719 243.746 95.5941 242.597 97.184C242.091 97.8893 242.17 98.8571 242.784 99.4707C242.78 99.4755 242.78 99.4755 242.78 99.4757Z" fill="#00B4D8"/>
</svg>
