<svg width="325" height="372" viewBox="0 0 325 372" fill="none" xmlns="http://www.w3.org/2000/svg">
<path fill-rule="evenodd" clip-rule="evenodd" d="M50.9564 239.033C55.5854 234.365 56.8763 227.335 54.2084 221.327C38.923 187.266 45.1628 145.839 73.0057 117.761C109.138 81.3221 168.056 81.0733 204.494 117.206C240.932 153.338 241.181 212.256 205.049 248.694C177.206 276.773 135.834 283.362 101.641 268.375C95.6146 265.759 88.6009 267.108 83.9749 271.774C75.8349 279.968 63.2867 292.622 54.2179 301.768C51.2386 304.772 47.1881 306.47 42.9575 306.488C38.7269 306.506 34.6621 304.842 31.6578 301.863C28.3112 298.545 24.6487 294.913 21.3021 291.594C18.2976 288.616 16.6002 284.565 16.5821 280.334C16.5642 276.103 18.2278 272.039 21.2069 269.035C30.2759 259.888 42.8241 247.234 50.9564 239.033ZM171.761 150.216C189.98 168.283 190.104 197.741 172.038 215.961C153.972 234.18 124.513 234.304 106.294 216.238C88.0747 198.172 87.9504 168.713 106.017 150.494C124.082 132.275 153.541 132.15 171.761 150.216Z" fill="#00B4D8"/>
<path fill-rule="evenodd" clip-rule="evenodd" d="M237.509 145.104C237.068 143.708 237.216 142.191 237.917 140.906C238.618 139.62 239.813 138.675 241.225 138.29C249.616 135.996 276.14 128.755 284.359 126.511C285.738 126.134 287.209 126.321 288.45 127.03C289.691 127.738 290.599 128.911 290.976 130.29C292.386 135.455 295.647 147.4 297.057 152.565C297.841 155.436 296.149 158.398 293.279 159.182L248.224 171.482C246.654 171.91 244.975 171.607 243.655 170.655C242.338 169.706 241.52 168.213 241.426 166.582C241.426 166.581 241.426 166.579 241.425 166.577C240.983 159.32 239.676 152.106 237.509 145.104ZM229.636 115.574C228.553 116.667 227.053 117.245 225.517 117.161C223.984 117.078 222.559 116.344 221.601 115.146C221.6 115.145 221.6 115.144 221.6 115.144C219.433 112.441 217.088 109.832 214.566 107.334C211.847 104.641 209.002 102.154 206.05 99.8737C206.049 99.8734 206.048 99.8727 206.048 99.8724C204.825 98.931 204.064 97.5106 203.959 95.9711C203.853 94.4273 204.417 92.9128 205.505 91.8137C212.225 85.0282 233.48 63.5716 239.8 57.1913C240.806 56.176 242.174 55.6018 243.603 55.5953C245.032 55.5884 246.405 56.1497 247.42 57.1551C251.224 60.9233 260.021 69.6375 263.824 73.4055C265.938 75.4999 265.954 78.911 263.86 81.0251L229.636 115.574ZM182.652 80.7581C182.281 82.168 181.354 83.3679 180.084 84.0827C178.815 84.7965 177.313 84.9659 175.906 84.5521C175.904 84.5516 175.903 84.5512 175.901 84.551C168.857 82.5005 161.613 81.3166 154.358 80.9974C154.356 80.9974 154.353 80.9973 154.35 80.997C152.718 80.9341 151.203 80.1348 150.231 78.8232C149.258 77.5109 148.933 75.8277 149.349 74.2489C149.349 74.2489 149.349 74.2485 149.349 74.2483C151.809 64.8788 159.145 36.9734 161.37 28.5117C162.126 25.6337 165.072 23.9141 167.95 24.6707C173.128 26.0321 185.104 29.1806 190.282 30.5419C191.664 30.905 192.845 31.8024 193.565 33.0367C194.286 34.2706 194.486 35.7406 194.123 37.1224L182.652 80.7581Z" fill="#00B4D8"/>
<path fill-rule="evenodd" clip-rule="evenodd" d="M149.483 157.513C163.758 162.767 171.082 178.622 165.828 192.898C160.574 207.174 144.719 214.498 130.443 209.244C116.168 203.99 108.843 188.135 114.097 173.859C119.351 159.583 135.207 152.259 149.483 157.513ZM142.619 198.919C143.127 200.018 144.104 200.829 145.278 201.124C146.452 201.42 147.697 201.168 148.665 200.441C152.341 197.702 155.182 193.939 156.789 189.571C158.397 185.204 158.673 180.497 157.641 176.03C157.377 174.851 156.594 173.855 155.511 173.32C154.427 172.785 153.16 172.768 152.063 173.275C152.059 173.268 152.059 173.268 152.059 173.268C150.672 173.909 149.953 175.46 150.36 176.932C151.299 180.243 151.172 183.79 149.968 187.06C148.764 190.332 146.562 193.115 143.706 195.036C142.446 195.89 141.99 197.531 142.629 198.913C142.619 198.919 142.619 198.919 142.619 198.919Z" fill="#00B4D8"/>
</svg>
