<svg width="31" height="31" viewBox="0 0 31 31" fill="none" xmlns="http://www.w3.org/2000/svg">
<rect x="0.857178" y="0.857178" width="30" height="30" rx="10" fill="#D21C1C"/>
<rect width="17.1429" height="17.1429" transform="translate(7.28564 7.28577)" fill="#D21C1C"/>
<mask id="mask0_4166_70238" style="mask-type:alpha" maskUnits="userSpaceOnUse" x="7" y="7" width="18" height="18">
<rect x="7.28564" y="7.28577" width="17.1429" height="17.1429" fill="#16205B"/>
</mask>
<g mask="url(#mask0_4166_70238)">
<path d="M15.8571 15.8571C15.0714 15.8571 14.3988 15.5773 13.8393 15.0178C13.2797 14.4583 13 13.7857 13 13C13 12.2143 13.2797 11.5416 13.8393 10.9821C14.3988 10.4226 15.0714 10.1428 15.8571 10.1428C16.6428 10.1428 17.3154 10.4226 17.875 10.9821C18.4345 11.5416 18.7143 12.2143 18.7143 13C18.7143 13.7857 18.4345 14.4583 17.875 15.0178C17.3154 15.5773 16.6428 15.8571 15.8571 15.8571ZM10.8571 21.5714C10.6547 21.5714 10.4852 21.5028 10.3485 21.3657C10.2114 21.229 10.1428 21.0595 10.1428 20.8571V19.5714C10.1428 19.1666 10.2471 18.7945 10.4557 18.455C10.6638 18.1159 10.9404 17.8571 11.2857 17.6785C12.0238 17.3095 12.7738 17.0326 13.5357 16.8478C14.2976 16.6635 15.0714 16.5714 15.8571 16.5714C16.6428 16.5714 17.4166 16.6635 18.1785 16.8478C18.9404 17.0326 19.6904 17.3095 20.4285 17.6785C20.7738 17.8571 21.0504 18.1159 21.2585 18.455C21.4671 18.7945 21.5714 19.1666 21.5714 19.5714V20.8571C21.5714 21.0595 21.5028 21.229 21.3657 21.3657C21.229 21.5028 21.0595 21.5714 20.8571 21.5714H10.8571Z" fill="#FAFAFE"/>
</g>
</svg>
