<svg width="31" height="31" viewBox="0 0 31 31" fill="none" xmlns="http://www.w3.org/2000/svg">
<rect x="0.420776" y="0.553955" width="29.7567" height="29.7567" rx="9.9189" fill="#3F45EA"/>
<path d="M18.3693 10.709H18.1331V10.4728C18.1331 10.2849 18.0585 10.1047 17.9256 9.97186C17.7928 9.83899 17.6126 9.76434 17.4246 9.76434C17.2367 9.76434 17.0565 9.83899 16.9237 9.97186C16.7908 10.1047 16.7162 10.2849 16.7162 10.4728V10.709H13.8822V10.4728C13.8822 10.2849 13.8075 10.1047 13.6747 9.97186C13.5418 9.83899 13.3616 9.76434 13.1737 9.76434C12.9858 9.76434 12.8056 9.83899 12.6727 9.97186C12.5398 10.1047 12.4652 10.2849 12.4652 10.4728V10.709H12.229C11.5401 10.709 10.8793 10.9827 10.3921 11.4699C9.90492 11.9571 9.63123 12.6178 9.63123 13.3068V18.5024C9.63123 19.1914 9.90492 19.8522 10.3921 20.3393C10.8793 20.8265 11.5401 21.1002 12.229 21.1002H18.3693C19.0583 21.1002 19.719 20.8265 20.2062 20.3393C20.6934 19.8522 20.9671 19.1914 20.9671 18.5024V13.3068C20.9671 12.6178 20.6934 11.9571 20.2062 11.4699C19.719 10.9827 19.0583 10.709 18.3693 10.709ZM18.3693 19.6832H12.229C11.9159 19.6832 11.6155 19.5588 11.3941 19.3374C11.1726 19.1159 11.0482 18.8156 11.0482 18.5024V14.4876H19.5501V18.5024C19.5501 18.8156 19.4257 19.1159 19.2043 19.3374C18.9828 19.5588 18.6825 19.6832 18.3693 19.6832Z" fill="#FAFAFE"/>
</svg>
