<svg width="64" height="34" viewBox="0 0 64 34" fill="none" xmlns="http://www.w3.org/2000/svg">
<path d="M8.13197 7.84764H11.841V11.2355H8.13197V20.3658C8.13197 21.2219 8.27416 21.7927 8.55954 22.0771C8.84493 22.3624 9.4157 22.5046 10.2719 22.5046C10.8426 22.5046 11.3653 22.4576 11.841 22.3624V26.321C11.4134 26.3926 10.9367 26.4397 10.414 26.4632C9.89134 26.4867 9.3799 26.499 8.88073 26.499C8.09617 26.499 7.35253 26.4458 6.65185 26.3384C5.95015 26.232 5.33232 26.0172 4.79735 25.696C4.26238 25.3749 3.83993 24.9289 3.53102 24.3591C3.2221 23.7884 3.06765 23.0396 3.06765 22.1129V11.2365H0V7.84764H3.06765V2.31995H8.13197V7.84764Z" fill="#18204E"/>
<path d="M13.6945 13.5185C13.7661 12.3299 14.0627 11.3428 14.5854 10.5583C15.1081 9.77372 15.774 9.14362 16.5831 8.66798C17.3912 8.19233 18.2954 7.85376 19.2938 7.65123C20.2921 7.44972 21.314 7.34845 22.3614 7.34845C23.2892 7.34845 24.2272 7.41392 25.1785 7.54485C26.1287 7.67577 26.9972 7.9315 27.7817 8.31099C28.5663 8.6915 29.2086 9.22648 29.7078 9.9159C30.207 10.6053 30.4566 11.4973 30.4566 12.5908V22.1844C30.4566 23.0171 30.5036 23.8139 30.5988 24.5739C30.6939 25.3349 30.8606 25.9057 31.0979 26.2862H25.962C25.8669 26.0008 25.7891 25.7103 25.7298 25.4127C25.6705 25.116 25.6285 24.8122 25.605 24.5033C24.7969 25.336 23.8456 25.9241 22.7522 26.2688C21.6577 26.6136 20.5407 26.7864 19.4002 26.7864C18.5205 26.7864 17.7001 26.6729 16.9391 26.4478C16.1781 26.2218 15.5122 25.8832 14.9414 25.4311C14.3706 24.98 13.9246 24.4092 13.6045 23.7198C13.2833 23.0304 13.1227 22.21 13.1227 21.2587C13.1227 20.2123 13.3007 19.351 13.6577 18.6729C14.0146 17.9957 14.4893 17.4546 15.0846 17.0506C15.6789 16.6465 16.3509 16.3437 17.0997 16.1412C17.8484 15.9397 18.6156 15.7791 19.4002 15.6594C20.1847 15.5408 20.9335 15.4456 21.6474 15.374C22.3604 15.3024 22.9966 15.1961 23.5551 15.0529C24.1136 14.9097 24.5596 14.702 24.892 14.4289C25.2245 14.1558 25.3912 13.7569 25.3912 13.2342C25.3912 12.6869 25.3022 12.2532 25.1232 11.932C24.9452 11.6108 24.7069 11.3612 24.4103 11.1833C24.1126 11.0053 23.7679 10.8866 23.3761 10.8263C22.9833 10.7669 22.5609 10.7373 22.1098 10.7373C21.135 10.7373 20.3566 10.9511 19.7735 11.3797C19.1905 11.8072 18.8519 12.5212 18.7568 13.5195H13.6945V13.5185ZM25.3922 17.2633C25.1785 17.4536 24.9105 17.6019 24.5893 17.7093C24.2681 17.8167 23.9234 17.9057 23.5551 17.9773C23.1859 18.0489 22.7941 18.1082 22.3778 18.1553C21.9615 18.2034 21.5636 18.2627 21.1831 18.3333C20.779 18.4049 20.3985 18.5 20.0415 18.6186C19.6845 18.7383 19.3695 18.8979 19.0964 19.1004C18.8232 19.303 18.6023 19.5638 18.4366 19.885C18.2699 20.2062 18.187 20.5928 18.187 21.0439C18.187 21.5196 18.2699 21.9062 18.4366 22.2029C18.6023 22.5005 18.8284 22.7378 19.1137 22.9158C19.3991 23.0938 19.7316 23.2186 20.1121 23.2902C20.4926 23.3618 20.8844 23.3976 21.2894 23.3976C22.2878 23.3976 23.0601 23.2319 23.6073 22.8984C24.1535 22.566 24.5576 22.1671 24.8194 21.7037C25.0813 21.2403 25.2409 20.7708 25.3012 20.2952C25.3605 19.8195 25.3902 19.439 25.3902 19.1536V17.2633H25.3922Z" fill="#18204E"/>
<path d="M50.3221 25.1099C50.3221 25.6091 50.2801 26.1625 50.1973 26.768C50.1134 27.3746 49.9528 27.9802 49.7155 28.5867C49.4772 29.1933 49.1447 29.7753 48.7171 30.3338C48.2896 30.8923 47.7188 31.3915 47.0048 31.8313C46.2919 32.2712 45.4234 32.622 44.4016 32.8839C43.3787 33.1447 42.1666 33.2757 40.7642 33.2757C39.8599 33.2757 38.9393 33.1621 38.0003 32.9371C37.0613 32.711 36.2052 32.3602 35.4329 31.8845C34.6606 31.4089 34.0182 30.7972 33.5068 30.0484C32.9953 29.2997 32.7048 28.4016 32.6332 27.3552H37.6618C37.8991 28.3054 38.3624 28.9652 39.0529 29.3345C39.7423 29.7027 40.5381 29.8868 41.4424 29.8868C42.8447 29.8868 43.8789 29.4593 44.5448 28.6031C45.2107 27.7469 45.5308 26.6535 45.5073 25.3217V22.8964H45.4357C44.8885 23.8712 44.1101 24.5903 43.0994 25.0537C42.0888 25.517 41.025 25.7492 39.908 25.7492C38.5292 25.7492 37.3406 25.5058 36.3412 25.0179C35.3429 24.531 34.5225 23.8651 33.8801 23.0202C33.2388 22.1763 32.7683 21.1892 32.4716 20.0599C32.174 18.9307 32.0256 17.7359 32.0256 16.4757C32.0256 15.2871 32.1975 14.1394 32.5432 13.0347C32.8879 11.929 33.3932 10.9542 34.0591 10.1103C34.724 9.2664 35.5515 8.59436 36.5376 8.09519C37.5237 7.59602 38.6601 7.34644 39.9438 7.34644C41.157 7.34644 42.2198 7.57249 43.1352 8.02359C44.0507 8.47571 44.8169 9.23571 45.4357 10.3057H45.5073V7.84765H50.3221V25.1099ZM41.1918 21.9359C41.9047 21.9359 42.5348 21.7927 43.082 21.5083C43.6283 21.223 44.0804 20.8435 44.4374 20.3668C44.7944 19.8912 45.0613 19.35 45.2403 18.7435C45.4183 18.1369 45.5073 17.5017 45.5073 16.8358C45.5073 16.0993 45.4357 15.3853 45.2935 14.6959C45.1503 14.0065 44.913 13.3999 44.5806 12.8772C44.2471 12.3545 43.8011 11.9382 43.2426 11.6293C42.6841 11.3204 41.9998 11.1659 41.1918 11.1659C40.4788 11.1659 39.8661 11.3091 39.3546 11.5935C38.8432 11.8789 38.4156 12.2655 38.0709 12.7524C37.7262 13.2403 37.4766 13.7988 37.3222 14.4289C37.1667 15.059 37.09 15.7188 37.09 16.4082C37.09 17.0741 37.1554 17.7339 37.2864 18.3875C37.4173 19.0422 37.6433 19.6303 37.9635 20.153C38.2847 20.6767 38.7061 21.1043 39.2298 21.4367C39.7536 21.7692 40.4072 21.9359 41.1918 21.9359Z" fill="#18204E"/>
<path d="M58.8517 8.57384L58.729 5.85193L61.4509 5.97468L64 8.52372L61.4008 11.1229L58.8517 8.57384Z" fill="#18204E"/>
<path d="M57.9885 8.57384L58.1113 5.85193L55.3904 5.97468L52.8403 8.52372L55.4395 11.1229L57.9885 8.57384Z" fill="#18204E"/>
<path d="M57.9885 2.54904L58.1113 5.27095L55.3904 5.1482L52.8403 2.59916L55.4395 0L57.9885 2.54904Z" fill="#18204E"/>
<path d="M58.8517 2.54904L58.729 5.27095L61.4509 5.1482L64 2.59916L61.4008 0L58.8517 2.54904Z" fill="#18204E"/>
</svg>
